<svg width="240" height="124" viewBox="0 0 240 124" fill="none" xmlns="http://www.w3.org/2000/svg">
<path d="M39.456 82H29.04L19.776 65.392L17.664 64.096L18.864 61.744H21.072C22.8 61.744 24.16 61.216 25.152 60.16C26.144 59.104 26.64 57.616 26.64 55.696C26.64 53.456 26.032 51.632 24.816 50.224C23.632 48.784 21.888 48.064 19.584 48.064C18.144 48.064 16.8 48.512 15.552 49.408V77.392L20.88 78.928L19.344 82.048H2.352V79.36L6.864 75.568V48.928L1.536 47.44L3.12 44.32H11.088C13.872 44.32 16.608 44.224 19.296 44.032C21.216 43.904 22.656 43.84 23.616 43.84C26.08 43.84 28.256 44.288 30.144 45.184C32.064 46.048 33.536 47.232 34.56 48.736C35.616 50.24 36.144 51.92 36.144 53.776C36.144 56.016 35.152 58.096 33.168 60.016C31.184 61.936 28.768 63.376 25.92 64.336L29.76 65.44L36 76.576L40.992 78.88L39.456 82ZM59.0726 55.648C62.4326 55.648 65.0246 56.928 66.8486 59.488C68.7046 62.048 69.6006 65.6 69.5366 70.144H52.2566C52.5766 72.096 53.2646 73.664 54.3206 74.848C55.3766 76 56.7526 76.576 58.4486 76.576C60.6886 76.576 63.9046 75.456 68.0966 73.216L69.5366 75.952L62.2406 81.76C60.3526 82.24 58.1606 82.48 55.6646 82.48C53.3286 82.48 51.2166 81.936 49.3286 80.848C47.4726 79.728 46.0166 78.208 44.9606 76.288C43.9366 74.368 43.4246 72.24 43.4246 69.904C43.4246 67.376 44.2406 65.024 45.8726 62.848C47.5046 60.64 49.5366 58.896 51.9686 57.616C54.4326 56.304 56.8006 55.648 59.0726 55.648ZM56.4326 61.216C55.0246 61.216 53.9686 61.696 53.2646 62.656C52.5606 63.584 52.1766 65.024 52.1126 66.976H61.2806C61.0246 64.992 60.5446 63.536 59.8406 62.608C59.1686 61.68 58.0166 61.216 56.3846 61.216H56.4326ZM101.614 82.096H92.3978L85.6298 72.688L81.4058 76.576L85.7258 78.976L84.1418 82.096H73.0538V79.408L83.6138 69.952L77.2778 61.696L72.6698 59.296L74.2058 56.176H83.4698L90.3818 65.392L94.4138 61.648L90.0938 59.248L91.6298 56.128H102.766V58.816L92.2538 68.224L98.1578 75.904L103.198 78.976L101.614 82.096Z" fill="#F3AC5A"/>
<path d="M140.616 55.696L137.976 56.752L131.88 47.968H120.504V60.928H126.216L129.72 55.552H132.408V69.616L129.288 71.152L126.168 64.624H120.504V77.104L128.856 78.928L127.272 82.048H107.304V79.36L111.816 75.808V48.976L106.488 47.392L108.072 44.272H137.16L140.616 43.456V55.696ZM155.916 55.648C158.284 55.648 160.396 56.208 162.252 57.328C164.108 58.416 165.548 59.92 166.572 61.84C167.628 63.76 168.156 65.888 168.156 68.224C168.156 70.752 167.34 73.12 165.708 75.328C164.076 77.504 162.028 79.248 159.564 80.56C157.132 81.84 154.78 82.48 152.508 82.48C150.172 82.48 148.06 81.936 146.172 80.848C144.316 79.728 142.86 78.208 141.804 76.288C140.78 74.368 140.268 72.24 140.268 69.904C140.268 67.376 141.084 65.024 142.716 62.848C144.348 60.64 146.38 58.896 148.812 57.616C151.276 56.304 153.644 55.648 155.916 55.648ZM153.132 61.216C151.788 61.216 150.764 61.76 150.06 62.848C149.388 63.904 149.052 65.488 149.052 67.6C149.052 70.288 149.596 72.528 150.684 74.32C151.772 76.08 153.308 76.96 155.292 76.96C156.604 76.96 157.596 76.416 158.268 75.328C158.972 74.208 159.324 72.592 159.324 70.48C159.324 67.792 158.78 65.584 157.692 63.856C156.604 62.096 155.084 61.216 153.132 61.216ZM189.338 55.648C191.706 55.648 193.818 56.208 195.674 57.328C197.53 58.416 198.97 59.92 199.994 61.84C201.05 63.76 201.578 65.888 201.578 68.224C201.578 70.752 200.762 73.12 199.13 75.328C197.498 77.504 195.45 79.248 192.986 80.56C190.554 81.84 188.202 82.48 185.93 82.48C183.594 82.48 181.482 81.936 179.594 80.848C177.738 79.728 176.282 78.208 175.226 76.288C174.202 74.368 173.69 72.24 173.69 69.904C173.69 67.376 174.506 65.024 176.138 62.848C177.77 60.64 179.802 58.896 182.234 57.616C184.698 56.304 187.066 55.648 189.338 55.648ZM186.554 61.216C185.21 61.216 184.186 61.76 183.482 62.848C182.81 63.904 182.474 65.488 182.474 67.6C182.474 70.288 183.018 72.528 184.106 74.32C185.194 76.08 186.73 76.96 188.714 76.96C190.026 76.96 191.018 76.416 191.69 75.328C192.394 74.208 192.746 72.592 192.746 70.48C192.746 67.792 192.202 65.584 191.114 63.856C190.026 62.096 188.506 61.216 186.554 61.216ZM237.208 82H226.312V78.448L221.704 82.096C220.68 82.352 219.496 82.48 218.152 82.48C216.04 82.48 214.136 81.936 212.44 80.848C210.776 79.728 209.464 78.208 208.504 76.288C207.576 74.368 207.112 72.24 207.112 69.904C207.112 67.376 207.928 65.024 209.56 62.848C211.192 60.64 213.224 58.896 215.656 57.616C218.12 56.304 220.488 55.648 222.76 55.648C224.04 55.648 225.224 55.968 226.312 56.608V49.456L222.04 46.624V43.936L231.448 40.096H234.472V77.44L238.792 78.88L237.208 82ZM221.08 76.048C222.968 76.048 224.712 75.584 226.312 74.656V65.488C226.12 64.24 225.48 63.216 224.392 62.416C223.304 61.616 221.832 61.216 219.976 61.216C217.16 61.216 215.752 63.36 215.752 67.648C215.752 70.08 216.2 72.096 217.096 73.696C218.024 75.264 219.352 76.048 221.08 76.048Z" fill="#854F5C"/>
</svg>
