<svg width="321" height="165" viewBox="0 0 321 165" fill="none" xmlns="http://www.w3.org/2000/svg">
<path d="M52.608 109H38.72L26.368 86.856L23.552 85.128L25.152 81.992H28.096C30.4 81.992 32.2133 81.288 33.536 79.88C34.8587 78.472 35.52 76.488 35.52 73.928C35.52 70.9413 34.7093 68.5093 33.088 66.632C31.5093 64.712 29.184 63.752 26.112 63.752C24.192 63.752 22.4 64.3493 20.736 65.544V102.856L27.84 104.904L25.792 109.064H3.136V105.48L9.152 100.424V64.904L2.048 62.92L4.16 58.76H14.784C18.496 58.76 22.144 58.632 25.728 58.376C28.288 58.2053 30.208 58.12 31.488 58.12C34.7733 58.12 37.6747 58.7173 40.192 59.912C42.752 61.064 44.7147 62.6427 46.08 64.648C47.488 66.6533 48.192 68.8933 48.192 71.368C48.192 74.3547 46.8693 77.128 44.224 79.688C41.5787 82.248 38.3573 84.168 34.56 85.448L39.68 86.92L48 101.768L54.656 104.84L52.608 109ZM78.7635 73.864C83.2435 73.864 86.6995 75.5707 89.1315 78.984C91.6062 82.3973 92.8008 87.1333 92.7155 93.192H69.6755C70.1022 95.7947 71.0195 97.8853 72.4275 99.464C73.8355 101 75.6702 101.768 77.9315 101.768C80.9182 101.768 85.2062 100.275 90.7955 97.288L92.7155 100.936L82.9875 108.68C80.4702 109.32 77.5475 109.64 74.2195 109.64C71.1048 109.64 68.2888 108.915 65.7715 107.464C63.2968 105.971 61.3555 103.944 59.9475 101.384C58.5822 98.824 57.8995 95.9867 57.8995 92.872C57.8995 89.5013 58.9875 86.3653 61.1635 83.464C63.3395 80.52 66.0488 78.1947 69.2915 76.488C72.5768 74.7387 75.7342 73.864 78.7635 73.864ZM75.2435 81.288C73.3662 81.288 71.9582 81.928 71.0195 83.208C70.0808 84.4453 69.5688 86.3653 69.4835 88.968H81.7075C81.3662 86.3227 80.7262 84.3813 79.7875 83.144C78.8915 81.9067 77.3555 81.288 75.1795 81.288H75.2435ZM135.485 109.128H123.197L114.173 96.584L108.541 101.768L114.301 104.968L112.189 109.128H97.405V105.544L111.485 92.936L103.037 81.928L96.893 78.728L98.941 74.568H111.293L120.509 86.856L125.885 81.864L120.125 78.664L122.173 74.504H137.021V78.088L123.005 90.632L130.877 100.872L137.597 104.968L135.485 109.128Z" fill="#190019"/>
<path d="M188.488 73.928L184.968 75.336L176.84 63.624H161.672V80.904H169.288L173.96 73.736H177.544V92.488L173.384 94.536L169.224 85.832H161.672V102.472L172.808 104.904L170.696 109.064H144.072V105.48L150.088 100.744V64.968L142.984 62.856L145.096 58.696H183.88L188.488 57.608V73.928ZM208.889 73.864C212.046 73.864 214.862 74.6107 217.337 76.104C219.811 77.5547 221.731 79.56 223.097 82.12C224.505 84.68 225.209 87.5173 225.209 90.632C225.209 94.0027 224.121 97.16 221.944 100.104C219.769 103.005 217.038 105.331 213.753 107.08C210.51 108.787 207.374 109.64 204.345 109.64C201.23 109.64 198.414 108.915 195.897 107.464C193.422 105.971 191.481 103.944 190.073 101.384C188.707 98.824 188.025 95.9867 188.025 92.872C188.025 89.5013 189.113 86.3653 191.289 83.464C193.465 80.52 196.174 78.1947 199.417 76.488C202.702 74.7387 205.859 73.864 208.889 73.864ZM205.177 81.288C203.385 81.288 202.019 82.0133 201.081 83.464C200.185 84.872 199.737 86.984 199.737 89.8C199.737 93.384 200.462 96.3707 201.913 98.76C203.363 101.107 205.411 102.28 208.057 102.28C209.806 102.28 211.129 101.555 212.025 100.104C212.963 98.6107 213.433 96.456 213.433 93.64C213.433 90.056 212.707 87.112 211.257 84.808C209.806 82.4613 207.779 81.288 205.177 81.288ZM253.451 73.864C256.608 73.864 259.424 74.6107 261.899 76.104C264.374 77.5547 266.294 79.56 267.659 82.12C269.067 84.68 269.771 87.5173 269.771 90.632C269.771 94.0027 268.683 97.16 266.507 100.104C264.331 103.005 261.6 105.331 258.315 107.08C255.072 108.787 251.936 109.64 248.907 109.64C245.792 109.64 242.976 108.915 240.459 107.464C237.984 105.971 236.043 103.944 234.635 101.384C233.27 98.824 232.587 95.9867 232.587 92.872C232.587 89.5013 233.675 86.3653 235.851 83.464C238.027 80.52 240.736 78.1947 243.979 76.488C247.264 74.7387 250.422 73.864 253.451 73.864ZM249.739 81.288C247.947 81.288 246.582 82.0133 245.643 83.464C244.747 84.872 244.299 86.984 244.299 89.8C244.299 93.384 245.024 96.3707 246.475 98.76C247.926 101.107 249.974 102.28 252.619 102.28C254.368 102.28 255.691 101.555 256.587 100.104C257.526 98.6107 257.995 96.456 257.995 93.64C257.995 90.056 257.27 87.112 255.819 84.808C254.368 82.4613 252.342 81.288 249.739 81.288ZM317.278 109H302.75V104.264L296.606 109.128C295.24 109.469 293.662 109.64 291.87 109.64C289.054 109.64 286.515 108.915 284.254 107.464C282.035 105.971 280.286 103.944 279.006 101.384C277.768 98.824 277.15 95.9867 277.15 92.872C277.15 89.5013 278.238 86.3653 280.414 83.464C282.59 80.52 285.299 78.1947 288.542 76.488C291.827 74.7387 294.984 73.864 298.014 73.864C299.72 73.864 301.299 74.2907 302.75 75.144V65.608L297.054 61.832V58.248L309.597 53.128H313.63V102.92L319.39 104.84L317.278 109ZM295.774 101.064C298.291 101.064 300.616 100.445 302.75 99.208V86.984C302.494 85.32 301.64 83.9547 300.19 82.888C298.739 81.8213 296.776 81.288 294.302 81.288C290.547 81.288 288.67 84.1467 288.67 89.864C288.67 93.1067 289.267 95.7947 290.462 97.928C291.699 100.019 293.47 101.064 295.774 101.064Z" fill="#854F5C"/>
</svg>
